<?xml version="1.0" encoding="utf-8"?>
<!-- Generator: Adobe Illustrator 18.1.1, SVG Export Plug-In . SVG Version: 6.00 Build 0)  -->
<!DOCTYPE svg PUBLIC "-//W3C//DTD SVG 1.1//EN" "http://www.w3.org/Graphics/SVG/1.1/DTD/svg11.dtd">
<svg version="1.1" id="Layer_1" xmlns="http://www.w3.org/2000/svg" xmlns:xlink="http://www.w3.org/1999/xlink" x="0px" y="0px"
	 width="78.1px" height="118.1px" viewBox="0 0 78.1 118.1" enable-background="new 0 0 78.1 118.1" xml:space="preserve">
<path fill="#7CB342" d="M38.8,106.8c7,0,13,4.2,15.7,10.2h22.2c-1.2-4-2.7-8.1-4.8-12.5c-6.9-14.3-29.3-13.6-29.3-13.6l-3.7,0.4
	l-3.7-0.3c0,0-22.4-0.7-29.3,13.6C3.7,108.9,2.2,113,1,117h22.2C25.8,111,31.8,106.8,38.8,106.8z"/>
<path fill="#659131" d="M38.8,106.8c-7,0-13,4.2-15.7,10.2h31.3C51.8,111,45.8,106.8,38.8,106.8z"/>
<path fill="#659131" d="M38.1,103.3L38.1,103.3c-5.9,0-10.8-4.8-10.8-10.8v-14c0-5.9,4.8-10.8,10.8-10.8h0c5.9,0,10.8,4.8,10.8,10.8
	v14C48.9,98.5,44,103.3,38.1,103.3z"/>
<path fill="#D2AA7B" d="M38.1,98.6L38.1,98.6c-5.9,0-10.8-4.8-10.8-10.8V74.6c0-5.9,4.8-10.8,10.8-10.8h0c5.9,0,10.8,4.8,10.8,10.8
	v13.2C48.9,93.8,44,98.6,38.1,98.6z"/>
<path fill="#EEBA7F" d="M61.8,48.6C61.8,77.9,51.2,82,38.1,82s-23.7-5.3-23.7-33.4c0-19.8,10.6-29,23.7-29S61.8,28.8,61.8,48.6z"/>
<path fill="#939393" d="M14.6,47.8c0,0-1.2-20.7,23.5-20.7s23.5,22.1,23.5,22.1l2.5-0.4c0,0,2.5-36.1-25.7-36.1s-26,34.7-26,34.7
	L14.6,47.8z"/>
<ellipse transform="matrix(0.9696 -0.2446 0.2446 0.9696 -12.8992 5.1195)" fill="#EEBA7F" cx="14.2" cy="54.5" rx="5.8" ry="7.8"/>
<ellipse transform="matrix(-0.9696 -0.2446 0.2446 -0.9696 112.8076 123.015)" fill="#EEBA7F" cx="64" cy="54.5" rx="5.8" ry="7.8"/>
<path fill="#939393" d="M61.7,49.2c0,0,12-31.4-7.6-40.7l-0.4,4c0,0-3.1-2.5-11.7-5.8C33.4,3.5,33.9,1,33.9,1l0.9,7.2
	c0,0-5.4-1.4-4.5-6.8c0,0-8.1,2.2-6.3,10.8c0,0-4-1.4-3.1-5.8c0,0-19.4,13.3-8.3,35.4l3,7.5c0,0-1-19.2,6.2-21.7c0,0,9,7.2,31-2.2
	C52.7,25.5,61.7,26.9,61.7,49.2"/>
<path d="M60.4,47.3c0-0.1-0.1-0.2-0.2-0.3C60.1,47,60,47,59.9,47c-1.3-0.2-2.7-0.4-4-0.5c-1.1-0.1-2.2-0.1-3.3-0.2
	c-2.1-0.1-4.2,0-6.3,0.2c-1.3,0.2-2.5,0.4-3.8,0.8c-0.6,0.2-1.2,0.4-1.8,0.6c-1,0.3-2,0.4-3,0.3c-0.6-0.1-1.2-0.3-1.8-0.5
	c-1.1-0.3-2.1-0.7-3.2-0.9c-2.1-0.4-4.3-0.6-6.3-0.6c-1.6,0-3.1,0.1-4.6,0.2c-1.2,0.1-2.4,0.3-3.6,0.5c-0.3,0-0.5,0.1-0.8,0.2
	c-0.1,0-0.2,0.1-0.2,0.3c0,0.7,0,1.4-0.1,2.1c0,0.1,0,0.2,0,0.3c0,0.1,0.1,0.2,0.1,0.2c0.1,0,0.2,0.1,0.3,0.1
	c0.4,0.3,0.6,0.7,0.7,1.1c0.1,0.3,0.2,0.6,0.3,0.9c0.1,0.2,0.1,0.4,0.2,0.6c0.2,0.9,0.4,1.8,0.6,2.8c0.2,0.9,0.5,1.7,0.9,2.5
	c0.5,0.9,1.1,1.6,2.1,2c0.6,0.2,1.2,0.4,1.8,0.5c1.1,0.2,2.2,0.2,3.3,0.1c1.1-0.1,2.2-0.3,3.3-0.6c0.8-0.2,1.6-0.6,2.2-1.1
	c1-0.8,1.8-1.8,2.4-3c0.6-1.1,1-2.4,1.4-3.6c0.1-0.4,0.2-0.7,0.3-1.1c0.2-0.5,0.6-0.8,1.1-0.9c0.2,0,0.4,0,0.5,0
	c0.4,0,0.8,0.1,1.1,0.5c0.1,0.1,0.2,0.3,0.3,0.5c0.1,0.3,0.3,0.7,0.4,1c0.5,1.5,1.1,3,1.9,4.3c0.7,1.1,1.5,2.1,2.7,2.7
	c0.8,0.5,1.7,0.7,2.6,0.9c1.4,0.3,2.8,0.3,4.2,0.3c0.8,0,1.7-0.1,2.5-0.4c0.8-0.3,1.6-0.7,2.1-1.4c0.4-0.5,0.6-1,0.8-1.5
	c0.5-1.1,0.8-2.3,1-3.4c0.1-0.6,0.3-1.1,0.4-1.7c0.1-0.3,0.2-0.6,0.2-0.9c0.1-0.3,0.1-0.6,0.3-0.8c0.2-0.2,0.4-0.5,0.7-0.6
	c0.1,0,0.2-0.1,0.2-0.3c0-0.1,0-0.2,0-0.3c0-0.4,0-0.8,0-1.3C60.4,47.9,60.4,47.6,60.4,47.3 M19.1,48.7c-0.5,0-0.8-0.1-0.8-0.2
	c0-0.1,0.4-0.2,0.8-0.2c0.5,0,0.8,0.1,0.8,0.2C19.9,48.6,19.5,48.7,19.1,48.7 M35.1,53.1c-0.3,1.2-0.8,2.4-1.4,3.5
	c-0.3,0.6-0.7,1.2-1.2,1.6c-0.7,0.6-1.5,1-2.3,1.2c-1.8,0.5-3.6,0.6-5.4,0.3c-0.4-0.1-0.7-0.1-1.1-0.2c-0.7-0.2-1.3-0.6-1.7-1.2
	c-0.5-0.7-0.7-1.4-0.9-2.2c-0.2-1-0.4-2.1-0.5-3.2c-0.1-0.6-0.1-1.2,0-1.8c0-0.3,0.1-0.6,0.1-0.9c0.2-1.1,0.9-1.8,2-2
	c1-0.3,2-0.4,3-0.5c0.7-0.1,1.5-0.1,2-0.1c1.7,0,3.1,0.1,4.6,0.5c0.6,0.1,1.2,0.3,1.7,0.5c0.3,0.1,0.5,0.3,0.7,0.5
	c0.4,0.3,0.6,0.7,0.6,1.2C35.4,51.2,35.3,52.2,35.1,53.1 M57.2,52.7c0,1.5-0.3,2.9-0.8,4.3c-0.2,0.6-0.5,1.1-0.9,1.5
	c-0.5,0.5-1.1,0.7-1.7,0.9c-0.8,0.2-1.6,0.3-2.5,0.3c-1.3,0-2.5-0.1-3.7-0.4c-1.2-0.3-2.2-0.9-3-1.9c-1-1.2-1.6-2.7-2-4.2
	c-0.2-0.7-0.3-1.4-0.3-2.2c0-0.3,0-0.6,0.1-0.9c0.1-0.8,0.6-1.3,1.3-1.6c0.7-0.3,1.5-0.5,2.2-0.6c0.8-0.2,1.7-0.3,2.6-0.4
	c0.7,0,1.3-0.1,1.8-0.1c1.8,0.1,3.4,0.2,4.9,0.7c0.3,0.1,0.6,0.2,0.8,0.3c0.3,0.1,0.4,0.3,0.6,0.6c0.1,0.3,0.3,0.6,0.4,0.8
	c0.1,0.3,0.2,0.7,0.2,1.1C57.2,51.5,57.2,52.1,57.2,52.7 M58.6,48.7c-0.5,0-0.8-0.1-0.8-0.2c0-0.1,0.4-0.2,0.8-0.2
	c0.5,0,0.8,0.1,0.8,0.2C59.4,48.6,59.1,48.7,58.6,48.7"/>
</svg>
